<?xml version="1.0" encoding="UTF-8"?>
<svg width="70px" height="70px" viewBox="0 0 70 70" version="1.1" xmlns="http://www.w3.org/2000/svg" xmlns:xlink="http://www.w3.org/1999/xlink">
    <!-- Generator: Sketch 63.1 (92452) - https://sketch.com -->
    <title>callback</title>
    <desc>Created with Sketch.</desc>
    <defs>
        <polygon id="path-1" points="46.2861884 18.9673804 46.2861884 0.673377081 3.28587176e-20 0.673377081 0 18.9673804"></polygon>
    </defs>
    <g id="callback" stroke="none" stroke-width="1" fill="none" fill-rule="evenodd">
        <g id="icon/callbackhover" transform="translate(11.545455, 12.181818)">
            <g id="icon/callback">
                <g id="Page-1">
                    <g id="Group-3">
                        <g id="Fill-1-Clipped">
                            <g>
                                <mask id="mask-2" fill="white">
                                    <use xlink:href="#path-1"></use>
                                </mask>
                                <g id="path-19"></g>
                                <path d="M45.5745035,11.595146 C40.5233672,4.75631156 32.4375082,0.673377081 23.945942,0.673377081 C17.5839348,0.673377081 11.4781213,2.95729886 6.68560317,6.9666888 L6.78016044,6.27650154 C6.95715226,5.25819247 6.64196135,4.56477248 6.34374227,4.15987339 C6.04309864,3.75174158 5.46605683,3.2401625 4.42915957,3.11974341 C2.80956323,2.92658796 1.56900416,3.88024249 1.34028871,5.48205883 L0.0560878173,14.4957105 C-0.100699453,15.2408541 0.0722514535,15.9924632 0.547462355,16.622845 C1.02348144,17.2556514 1.69831325,17.6298396 2.45962051,17.6847959 L11.4781213,18.9350532 L11.4781213,18.9350532 C11.6349086,18.9568741 11.7892713,18.9673804 11.9387849,18.9673804 C13.3167349,18.9673804 14.3600976,18.0670659 14.5993194,16.6171878 C14.770654,15.5867559 14.4368749,14.8917196 14.1273412,14.4892451 C13.8202322,14.0908114 13.2407658,13.5978205 12.2127585,13.4862914 L10.5559858,13.2478778 C14.1580522,9.88422512 18.9432966,7.94701334 23.945942,7.94701334 C30.1390392,7.94701334 36.03715,10.9259715 39.7232672,15.9164941 C40.9161436,17.5320496 43.1927917,17.8755268 44.8099635,16.6810341 C46.4255189,15.4873496 46.768188,13.2107014 45.5745035,11.595146" id="Fill-1" fill="#FFFFFF" fill-rule="nonzero" mask="url(#mask-2)"></path>
                            </g>
                        </g>
                    </g>
                    <path d="M28.7684437,35.0059908 C27.5020228,36.2772608 25.9575873,36.9124917 24.1343292,36.9124917 C22.311071,36.9124917 20.7666356,36.2772608 19.5002147,35.0059908 C18.234602,33.7347209 17.6009875,32.2016 17.6009875,30.4050118 C17.6009875,28.6092318 18.234602,27.0753028 19.5002147,25.804841 C20.7666356,24.533571 22.311071,23.8983401 24.1343292,23.8983401 C25.9575873,23.8983401 27.5020228,24.533571 28.7684437,25.804841 C30.0348645,27.0753028 30.6676709,28.6092318 30.6676709,30.4050118 C30.6676709,32.2016 30.0348645,33.7347209 28.7684437,35.0059908 M44.2402762,37.4717535 L42.9746634,28.5243728 C42.8388889,27.6434546 42.4679335,26.889421 41.8601807,26.2622719 C41.252428,25.6351228 40.5097089,25.2197173 39.6320235,25.0168637 C36.2893835,24.2369683 34.0523363,23.048941 32.92169,21.2701329 C31.7902354,19.4905165 31.0224627,15.4900166 31.0224627,15.4900166 L31.0087236,15.4900166 C30.7315173,13.873653 27.7614491,12.8812057 24.1319046,12.8812057 C20.501552,12.8812057 17.532292,13.873653 17.2542775,15.4900166 L17.2470038,15.4900166 C17.2470038,15.4900166 16.4784229,19.4905165 15.3477766,21.2701329 C14.2163221,23.048941 11.980083,24.2830346 8.63744305,25.0621219 C7.75894943,25.2657837 7.01623035,25.6577519 6.40847763,26.284901 C5.80072491,26.9120501 5.42976946,27.6547691 5.2948031,28.5356873 L4.02838221,37.4774108 C3.79239312,39.0363935 4.18032039,40.5759798 5.19297219,41.7963344 C6.20643218,43.0158807 7.50598852,43.7763798 9.09325759,43.7763798 L39.176209,43.7763798 C40.7626698,43.7763798 42.0630344,43.0134562 43.0756862,41.7931016 C44.088338,40.5727471 44.4770734,39.0307362 44.2402762,37.4717535" id="Fill-4" fill="#FFFFFF" fill-rule="nonzero"></path>
                </g>
            </g>
        </g>
    </g>
</svg>