<?xml version="1.0" encoding="UTF-8"?>
<svg width="70px" height="70px" viewBox="5 5 60 60" version="1.1" xmlns="http://www.w3.org/2000/svg" xmlns:xlink="http://www.w3.org/1999/xlink">
    <!-- Generator: Sketch 63.1 (92452) - https://sketch.com -->
    <title>chat</title>
    <desc>Created with Sketch.</desc>
    <g id="chat" stroke="none" stroke-width="1" fill="none" fill-rule="evenodd">
        <path d="M54.7773601,48.9029941 C56.1976114,47.1622659 57,44.9190182 57,42.6342928 C57,38.8937787 54.9268152,35.7377851 51.8405224,33.7480783 C52.2774111,32.3633665 52.507962,30.926887 52.507962,29.4760843 C52.507962,19.9065847 43.3605462,13 33.2540842,13 C23.0839586,13 14,19.9588835 14,29.4761896 C14,32.8519884 15.1854218,36.1664693 17.283968,38.7382585 C17.3725782,41.7521005 15.6433933,46.0745895 14.0857914,49.2237934 C18.260339,48.4499117 24.1955924,46.739735 26.8870592,45.0486525 C28.4665781,45.4429668 29.9999668,45.6880195 31.4800225,45.8018469 C33.3458247,51.1684146 39.8515591,55.2772517 48.2775747,53.1740335 C50.0993342,54.318571 54.1162867,55.4759461 56.9418662,56 C55.8876351,53.8683524 54.7173472,50.9427743 54.7773601,48.9029941 L54.7773601,48.9029941 Z M26.7779918,41.0813327 C23.1673485,43.2245431 19.9896291,44.0796841 19.9896291,44.0796841 C19.9896291,44.0796841 21.0645237,41.1345861 21.5121624,37.7465882 C19.3098744,35.4649372 17.7496624,33.1510384 17.7496624,29.4761896 C17.7496624,22.4926951 24.7049124,16.8111652 33.2540842,16.8111652 C41.8031528,16.8111652 48.7585082,22.4926951 48.7585082,29.4761896 C48.7585082,36.704739 40.5846447,44.8027505 26.7779918,41.0813327 L26.7779918,41.0813327 Z M52.4971067,52.0566528 C52.4971067,52.0566528 50.4538756,51.5069278 48.1323981,50.1288982 C41.2748376,51.9770898 36.5830367,49.2932771 34.7996848,45.8357955 C42.1493437,45.4033982 47.8213791,41.5911709 50.6079253,36.5982302 C52.6497975,38.0904054 53.9373981,40.2581214 53.9373981,42.6669663 C53.9373981,45.029769 52.9342038,46.5174895 51.518231,47.984628 C51.8059763,50.1630575 52.4971067,52.0566528 52.4971067,52.0566528 L52.4971067,52.0566528 Z" id="speech-bubble-14-icon-mobile" fill="#FFFFFF" fill-rule="nonzero"></path>
    </g>
</svg>
