<?xml version="1.0" encoding="UTF-8"?>
<svg width="70px" height="70px" viewBox="0 0 70 70" version="1.1" xmlns="http://www.w3.org/2000/svg" xmlns:xlink="http://www.w3.org/1999/xlink">
    <!-- Generator: Sketch 63.1 (92452) - https://sketch.com -->
    <title>email</title>
    <desc>Created with Sketch.</desc>
    <g id="email" stroke="none" stroke-width="1" fill="none" fill-rule="evenodd">
        <path d="M56.7142857,18 L14.2857143,18 L35.5,35.3207547 L56.7142857,18 L56.7142857,18 L56.7142857,18 Z M13,20.5660377 L13,48.4658307 C13,48.6418557 13.0150059,48.8105435 13.045018,48.9718997 C13.0750302,49.1332554 13.1050419,49.2872749 13.1350541,49.4339623 L29.0714286,33.4157847 L13,20.5660377 L13,20.5660377 L13,20.5660377 Z M41.9285714,33.3031815 L57.8645637,49.4339623 C57.8946639,49.287051 57.9247582,49.1327963 57.9548584,48.9711943 C57.9849528,48.8095917 58,48.6406463 58,48.4643525 L58,20.5660377 L41.9285714,33.3031815 L41.9285714,33.3031815 L41.9285714,33.3031815 Z M35.3779716,39.1935076 L30.6809563,35.3207547 L14.2857143,52 L56.0714286,52 L39.986364,35.3207547 L35.3779716,39.1935076 L35.3779716,39.1935076 L35.3779716,39.1935076 Z" id="Page-1" fill="#FFFFFF" fill-rule="nonzero"></path>
    </g>
</svg>