<?xml version="1.0" encoding="UTF-8"?>
<svg width="70px" height="70px" viewBox="0 0 70 70" version="1.1" xmlns="http://www.w3.org/2000/svg" xmlns:xlink="http://www.w3.org/1999/xlink">
    <!-- Generator: Sketch 63.1 (92452) - https://sketch.com -->
    <title>facebook</title>
    <desc>Created with Sketch.</desc>
    <g id="facebook" stroke="none" stroke-width="1" fill="none" fill-rule="evenodd">
        <path d="M54.4390244,13 C55.0894361,13 55.6788605,13.2445652 56.2073131,13.7336957 C56.7357736,14.2228261 57,14.793473 57,15.4456522 L57,55.5543478 C57,56.2065246 56.7357736,56.7771716 56.2073131,57.2663043 C55.6788605,57.7554372 55.0894361,58 54.4390244,58 L42.9756098,58 L42.9756098,40.6358696 L48.8292683,40.6358696 L49.6829268,33.7880435 L42.9756098,33.7880435 L42.9756098,29.3858696 C42.9756098,27.1847748 44.1138108,26.0842391 46.3902439,26.0842391 L49.9268293,26.0842391 L49.9268293,20.0923913 C48.7073093,19.8478261 46.95936,19.7255435 44.6829268,19.7255435 C42.0812878,19.7255435 39.9878166,20.5203687 38.4024351,22.1100504 C36.8170615,23.69974 36.0243902,25.9211826 36.0243902,28.7744565 L36.0243902,33.7880435 L30.1707317,33.7880435 L30.1707317,40.6358696 L36.0243902,40.6358696 L36.0243902,58 L14.4390244,58 C13.788615,58 13.2195145,57.7554372 12.7317073,57.2663043 C12.2439,56.7771716 12,56.2065246 12,55.5543478 L12,15.4456522 C12,14.793473 12.2439,14.2228261 12.7317073,13.7336957 C13.2195145,13.2445652 13.788615,13 14.4390244,13 L54.4390244,13 L54.4390244,13 L54.4390244,13 Z" id="Page-1" fill="#FFFFFF" fill-rule="nonzero"></path>
    </g>
</svg>