<?xml version="1.0" encoding="UTF-8"?>
<svg width="70px" height="70px" viewBox="0 0 70 70" version="1.1" xmlns="http://www.w3.org/2000/svg" xmlns:xlink="http://www.w3.org/1999/xlink">
    <!-- Generator: Sketch 63.1 (92452) - https://sketch.com -->
    <title>phone</title>
    <desc>Created with Sketch.</desc>
    <g id="phone" stroke="none" stroke-width="1" fill="none" fill-rule="evenodd">
        <g transform="translate(13.340996, 4.000000)" fill="#FFFFFF" fill-rule="nonzero" id="Shape">
            <path d="M8.55249946,4.92481617 L7.27482145,3.65335193 C12.1539966,-1.21665964 20.0955429,-1.21834593 24.9747181,3.65166564 L23.6970401,4.92818876 C19.5209258,0.76136099 12.7269237,0.76136099 8.55249946,4.92481617 Z M22.7658223,5.8573357 C19.1017933,2.20482702 13.1443661,2.20482702 9.48371717,5.85902199 L10.7630852,7.13217252 C13.7172931,4.18116136 18.5322464,4.18116136 21.4898344,7.13048623 L22.7658223,5.8573357 Z M13.0463432,9.40866685 C14.7431537,7.712257 17.509766,7.712257 19.2082665,9.40866685 L20.4859445,8.13214373 C18.082693,5.73255008 14.1719167,5.73255008 11.7652851,8.13383003 L13.0463432,9.40866685 Z M28.3227077,26.1653514 L27.9170956,26.5700615 C27.0129187,27.4722278 27.0129187,28.934243 27.9204757,29.8364093 L28.097931,30.01347 C29.0021079,30.9173225 30.4623113,30.9173225 31.3698683,30.0151562 L34.4288594,26.9663401 L34.8294013,26.5633163 C35.7335782,25.6611501 35.7335782,24.1974485 34.8294013,23.2952822 L34.6485659,23.1165353 C33.7494591,22.214369 32.2841855,22.214369 31.3749385,23.1165353 L28.3227077,26.1653514 Z M35.055868,27.5970134 L31.998567,30.6475158 C31.0994603,31.5463095 31.0994603,33.010011 31.998567,33.9121773 L32.1743323,34.0909242 C33.0785092,34.9914042 34.5420927,34.9914042 35.4479597,34.0909242 L35.8535717,33.6845278 L38.5018805,31.0454807 L38.9024225,30.6407706 C39.8099795,29.7386043 39.8065994,28.2799617 38.9058026,27.3727365 L38.7283473,27.1956759 C37.8258604,26.2951959 36.3639669,26.290137 35.4547199,27.1939896 L35.055868,27.5970134 Z M45.1471583,42.4228935 L31.491552,56.0498199 C30.3524581,57.1863808 28.4883326,57.1863808 27.3526188,56.0515062 L25.0017589,53.7041876 L22.5140049,56.183037 C22.5140049,56.183037 18.8111047,59.8524086 13.7933454,58.8153389 C13.7544742,58.8069075 13.713913,58.8018486 13.6767319,58.7934171 C13.4587154,58.7462009 13.2356288,58.6821218 13.0142322,58.6163565 C12.8333968,58.5623951 12.6441112,58.498316 12.4598957,58.4308643 C12.2790603,58.3634126 12.0965349,58.3027061 11.9123194,58.2200778 C11.5421984,58.0598801 11.1720774,57.8777605 10.7951962,57.6585425 C10.6853429,57.5927772 10.5687295,57.5118351 10.4554961,57.4410109 C10.1394567,57.2470873 9.82172722,57.026183 9.50230772,56.7833569 C9.37893405,56.6889246 9.25387033,56.5944922 9.12542651,56.4916284 C8.69953384,56.1493111 8.27195111,55.7800132 7.84098829,55.3483224 C3.00575443,50.5238407 3.21701072,46.2254821 4.12118762,44.0552242 C4.12456772,44.0484791 4.86142964,41.3402939 5.75546624,38.1127309 C6.00728373,37.195388 6.27600173,36.2409467 6.53795952,35.284819 L0.854320418,29.6121324 C-0.284773473,28.4772579 -0.284773473,26.618964 0.854320418,25.4807168 L14.5099267,11.857163 C15.6490206,10.7206021 17.5131461,10.7206021 18.6488599,11.857163 L26.5718156,19.7591277 L27.291777,19.039081 C28.1959539,18.1369147 29.6612275,18.1402873 30.5670945,19.039081 L30.7445497,19.2195143 C31.6487266,20.1199942 31.6487266,21.5803232 30.7445497,22.4841757 L30.3406277,22.8905721 L27.695699,25.5313056 L27.2867069,25.9360157 C26.3876001,26.8348094 24.9273967,26.8398682 24.0164596,25.9360157 L23.8406943,25.7606413 C22.9382075,24.8567887 22.9382075,23.3947735 23.8406943,22.4926072 L24.2429263,22.0878971 L24.2429263,22.0862108 L25.1352728,21.1958486 L18.4257732,14.5029553 L3.50600931,29.384483 L7.17003833,33.0369917 C7.79366688,30.8110861 8.35138348,28.8701639 8.64545223,27.9460758 C9.57328983,25.0136139 11.9156995,25.1215366 13.0294427,26.9056336 C13.8964385,28.2799617 13.2237984,31.4114061 12.7742451,34.9559921 C12.6846724,35.6558033 12.4497554,36.8058545 12.1759673,38.02673 L27.0365794,52.8526101 L41.9478931,37.9710823 L40.8409101,36.866561 L39.5395714,38.1650059 C38.6370846,39.0671722 37.173501,39.0637996 36.2676341,38.1650059 L36.0867987,37.9845727 C35.1843118,37.085779 35.1843118,35.6271363 36.0867987,34.7199112 L36.4924108,34.3152011 L39.1407195,31.6744677 L39.5412615,31.2697576 C40.4454384,30.3692776 41.9073319,30.3675913 42.8165789,31.2680713 L42.9923441,31.4451319 C43.8999011,32.3472982 43.896521,33.8076272 42.9923441,34.713166 L42.5918022,35.1145035 L42.5951823,35.1178761 L42.2774529,35.4315264 L45.1454682,38.2931641 C46.2845621,39.4280387 46.2845621,41.2846463 45.1471583,42.4228935 Z M6.990893,22.8382971 C7.12609702,22.976573 7.35425381,22.9732005 7.48945783,22.8366108 L11.8599279,18.4758594 C11.998512,18.3392698 11.998512,18.1149929 11.8599279,17.9784033 C11.7213437,17.8401273 11.4965671,17.8401273 11.361363,17.976717 L6.990893,22.3374683 C6.85230888,22.4757443 6.85230888,22.6983348 6.990893,22.8382971 Z M37.2833543,46.1394812 C36.7121173,45.5678282 35.7842797,45.5678282 35.2130427,46.1394812 C34.6418057,46.7111343 34.6451858,47.6352223 35.2130427,48.2051891 C35.7876598,48.7768421 36.7121173,48.7768421 37.2833543,48.2068754 C37.8529012,47.6352223 37.8529012,46.7128206 37.2833543,46.1394812 Z"></path>
        </g>
    </g>
</svg>