<?xml version="1.0" encoding="UTF-8"?>
<svg width="70px" height="70px" viewBox="0 0 70 70" version="1.1" xmlns="http://www.w3.org/2000/svg" xmlns:xlink="http://www.w3.org/1999/xlink">
    <!-- Generator: Sketch 63.1 (92452) - https://sketch.com -->
    <title>skype</title>
    <desc>Created with Sketch.</desc>
    <g id="skype" stroke="none" stroke-width="1" fill="none" fill-rule="evenodd">
        <path d="M58.765625,34.6011905 C58.765625,28.0575052 56.4297135,22.4752232 51.7578125,17.8541635 C47.0859115,13.2331101 41.4661805,10.9226191 34.8984375,10.9226191 C33.6119705,10.9226191 32.3255295,11.0238095 31.0390625,11.2261905 C28.66926,9.74205482 26.062513,9 23.21875,9 C19.291645,9 15.940115,10.3829257 13.1640625,13.1488095 C10.3880068,15.9146933 9,19.2539467 9,23.1666667 C9,26.0000129 9.77863826,28.5634835 11.3359375,30.8571428 C11.1328112,32.1388975 11.03125,33.3868983 11.03125,34.6011905 C11.03125,41.1448758 13.3502375,46.7271577 17.988278,51.3482175 C22.626327,55.9692689 28.2629905,58.2797619 34.8984375,58.2797619 C36.320319,58.2797619 37.776033,58.1448428 39.265625,57.875 C41.567717,59.2916737 44.0729015,60 46.78125,60 C50.708355,60 54.059885,58.6170775 56.8359375,55.8511905 C59.61199,53.0853067 61,49.7460533 61,45.8333333 C61,42.9325245 60.1875065,40.2678701 58.5625,37.8392857 C58.6979145,36.7599185 58.765625,35.6805577 58.765625,34.6011905 L58.765625,34.6011905 L58.765625,34.6011905 L58.765625,34.6011905 Z M37.1328125,52.1071428 C33.5442535,52.2420613 30.6836035,51.9553604 28.550778,51.2470205 C26.417959,50.5386872 24.471365,49.3750065 22.7109375,47.7559524 C21.0182205,46.0694358 20.3242155,44.4335372 20.628903,42.8482175 C20.933597,41.2628915 21.898431,40.4027756 23.5234375,40.2678572 C24.403648,40.2003947 25.2330675,40.4533676 26.011722,41.0267889 C26.79037,41.6002038 27.535153,42.2916601 28.246097,43.1011905 C28.9570345,43.9107208 29.4817665,44.4166667 29.8203125,44.6190476 C30.497398,45.0238095 31.411454,45.4117075 32.5625,45.7827348 C33.713546,46.1537688 35.101556,46.2549592 36.7265625,46.0863128 C38.351569,45.9176598 39.6380165,45.2936529 40.5859375,44.2142857 C41.3307335,43.2023745 41.669273,42.3254012 41.6015625,41.5833333 C41.533852,40.8412655 41.059898,40.2004012 40.1796875,39.6607143 C39.299477,39.1210275 38.351569,38.682544 37.3359375,38.3452381 C36.320306,38.0079322 35.2369835,37.7718232 34.0859375,37.6369048 C30.4973785,37.0972179 27.3658995,35.9335436 24.691403,34.1458365 C22.016913,32.3581231 20.815102,30.013904 21.0859375,27.1130952 C21.356773,24.077368 22.4908735,21.6994145 24.488278,19.9791699 C26.485689,18.2589188 28.8385265,17.2638911 31.546875,16.9940476 C37.369822,16.4543608 42.0755035,17.736096 45.6640625,20.8392857 C46.882819,21.8511969 47.576824,22.9305512 47.746097,24.0773809 C47.9153635,25.2242107 47.712245,26.1517825 47.136722,26.8601223 C46.5611925,27.5684556 45.8333355,27.9900815 44.953125,28.125 C44.34375,28.1924625 43.5312565,27.7708365 42.515625,26.8601223 C41.4999935,25.9494015 40.2643305,25.0218297 38.808597,24.0773809 C37.352857,23.1329321 35.880217,22.6269863 34.390625,22.5595238 C31.749987,22.5595238 29.854171,23.4702316 28.703125,25.2916667 C27.552079,26.9781832 28.026033,28.3611089 30.125,29.4404761 C30.5989605,29.7103196 31.174477,29.9127005 31.8515625,30.0476191 C32.4609375,30.1825375 33.5950445,30.4355169 35.253903,30.8065444 C36.912768,31.1775783 38.097653,31.4642857 38.808597,31.6666667 C39.5195345,31.8690476 40.5351465,32.2063471 41.855472,32.6785715 C43.175791,33.1507959 44.174477,33.6230137 44.8515625,34.0952381 C45.528648,34.5674625 46.256505,35.2083268 47.035153,36.0178572 C47.8138075,36.8273875 48.40625,37.7380888 48.8125,38.75 C50.098967,41.7857272 49.438814,44.7202252 46.832028,47.5535715 C44.2252485,50.3869177 40.992207,51.9047619 37.1328125,52.1071428 L37.1328125,52.1071428 L37.1328125,52.1071428 L37.1328125,52.1071428 Z" id="Page-1" fill="#FFFFFF" fill-rule="nonzero"></path>
    </g>
</svg>