<?xml version="1.0" encoding="UTF-8"?>
<svg width="70px" height="70px" viewBox="0 0 70 70" version="1.1" xmlns="http://www.w3.org/2000/svg" xmlns:xlink="http://www.w3.org/1999/xlink">
    <!-- Generator: Sketch 63.1 (92452) - https://sketch.com -->
    <title>viber</title>
    <desc>Created with Sketch.</desc>
    <g id="viber" stroke="none" stroke-width="1" fill="none" fill-rule="evenodd">
        <g id="Yellow-whatsapp" transform="translate(15.625000, 15.625000)" fill="#FFFFFF" fill-rule="nonzero">
            <path d="M5.90206125,0.0470136875 C5.13900863,0.131053 4.27896112,0.404727563 3.52443469,0.796182125 C1.74958456,1.73069013 0.429984625,3.54909513 0.080099,5.55268338 C0.004224,5.97787869 0,6.55037713 0,19.7804017 L0,33.5660545 L0.096994875,33.9953893 C0.703995187,36.7357276 2.64326737,38.6720688 5.38775362,39.2781517 L5.81773825,39.375 L33.55734,39.375 L33.9873246,39.2781517 C36.7317326,38.6720688 38.6710048,36.7357276 39.2780833,33.9953893 L39.375,33.5660545 L39.375,19.7804799 C39.375,6.55045519 39.370776,5.97795681 39.294901,5.55283963 C39.1895364,4.93816531 38.9787289,4.31950775 38.6583329,3.67968413 C37.6592072,1.67180013 35.6525079,0.282651813 33.4013659,0.038500375 C32.8869801,-0.016172 6.39947294,-0.0119544375 5.90206125,0.0469355625 L5.90206125,0.0470136875 Z M20.9648211,7.04711519 C22.4150512,7.228159 23.5870468,7.57751581 24.872855,8.20468669 C26.1375433,8.82350044 26.9469813,9.40857356 28.0177581,10.4735924 C29.0211077,11.4795651 29.577655,12.2415426 30.1678377,13.4243415 C30.9899476,15.0744335 31.4578698,17.035924 31.5378906,19.1954068 C31.5674584,19.9319225 31.5464167,20.0961741 31.3776926,20.3065848 C31.0573747,20.7149879 30.3533013,20.6475846 30.1130042,20.1888048 C30.0371292,20.0372841 30.0160094,19.9068513 29.9907437,19.3174044 C29.9485041,18.4124195 29.8853791,17.8273464 29.7588947,17.1285547 C29.2614047,14.3882945 27.946107,12.1994448 25.8466368,10.6293308 C24.0971305,9.31602094 22.2885667,8.67611919 19.9193882,8.53725125 C19.1183981,8.49093588 18.9792417,8.46149088 18.7980021,8.32262294 C18.4607101,8.05738356 18.4438924,7.43443025 18.7684342,7.14404156 C18.9665698,6.96291963 19.1057262,6.93769219 19.7929037,6.95878013 C20.1512373,6.97135481 20.6781386,7.01345256 20.9648211,7.04719325 L20.9648211,7.04711519 Z M11.3276741,7.50175544 C11.4752785,7.55228837 11.7029036,7.67014656 11.8336121,7.75434206 C12.6346021,8.28466462 14.8647026,11.1344259 15.5940416,12.5572367 C16.0113543,13.3695909 16.1505107,13.9715344 16.0198805,14.4177395 C15.8848698,14.8976072 15.6615469,15.1501938 14.6623431,15.9541909 C14.261848,16.2783203 13.8866185,16.6108068 13.8277176,16.6992199 C13.6758893,16.9181439 13.5535506,17.3474788 13.5535506,17.6505202 C13.5578527,18.3534514 14.013103,19.6288811 14.6118118,20.6097044 C15.0754318,21.3716038 15.9059897,22.3481314 16.7280214,23.0974561 C17.6934336,23.9814311 18.5450331,24.5832965 19.5062212,25.0590247 C20.7414199,25.6735428 21.4961028,25.8293592 22.0483479,25.572555 C22.1874261,25.5094474 22.3349522,25.4252519 22.3814159,25.3874498 C22.4234992,25.3494915 22.7481192,24.9538193 23.102307,24.5160494 C23.7851824,23.6573017 23.9411564,23.5184338 24.4091568,23.3584779 C25.0036416,23.1564242 25.610642,23.2110966 26.2218662,23.5225732 C26.6856427,23.7625852 27.6974402,24.3897561 28.350826,24.8443183 C29.2107953,25.4462617 31.0488486,26.9448329 31.2976717,27.2437349 C31.7361044,27.7824927 31.8119794,28.4727711 31.5168489,29.2347486 C31.2049009,30.0386676 29.9907437,31.545674 29.1433682,32.1897152 C28.3760916,32.7706488 27.8323726,32.9936342 27.1156273,33.0273749 C26.5254446,33.0568199 26.2810019,33.0062869 25.526319,32.6948103 C19.6074401,30.2575916 14.8815984,26.6207036 11.1295386,21.6241904 C9.169303,19.0143629 7.67683319,16.3077654 6.65658769,13.5001019 C6.06225925,11.8626626 6.03276969,11.1512962 6.52173344,10.3136366 C6.73254094,9.96006213 7.63052594,9.08452225 8.28391169,8.59621938 C9.37158431,7.78800469 9.87329825,7.48910269 10.2737933,7.40498525 C10.5478039,7.34601712 11.0240957,7.3923325 11.3276741,7.50183356 L11.3276741,7.50175544 Z M21.2557276,10.0989301 C23.8147502,10.4735143 25.7961056,11.6606089 27.0945857,13.588515 C27.8239247,14.6745437 28.2791749,15.9499734 28.435149,17.3179556 C28.4899042,17.8189113 28.4899042,18.7324094 28.4310032,18.8839302 C28.3760916,19.0270157 28.1990759,19.2206342 28.0472476,19.3006122 C27.8829039,19.3848077 27.5330183,19.3763725 27.3391067,19.2753066 C27.0144867,19.1112113 26.9174917,18.8501894 26.9174917,18.1430406 C26.9174917,17.0527943 26.6350332,15.903658 26.1460694,15.0112478 C25.5895221,13.9926223 24.7801623,13.1507451 23.7937086,12.5655939 C22.9463329,12.0604987 21.6942384,11.6858364 20.5517324,11.5932057 C20.1385654,11.5596212 19.9109402,11.4754256 19.7549662,11.2943818 C19.5146692,11.0207853 19.4893254,10.6503406 19.6916849,10.3430816 C19.9109402,10.0020818 20.2481539,9.94740938 21.2557276,10.0989301 Z M22.1537126,13.2769603 C22.9841922,13.4537865 23.6208386,13.7694807 24.1646358,14.2788716 C24.8644071,14.9396269 25.2480844,15.7394064 25.4166522,16.8886208 C25.5305429,17.6378674 25.4841575,17.9325518 25.2185166,18.1767032 C24.9697717,18.4039843 24.5103757,18.4124195 24.2320629,18.1977912 C24.0297034,18.0461924 23.9665002,17.8862364 23.9201148,17.4526841 C23.8653596,16.8759681 23.7641407,16.4719388 23.591349,16.0972765 C23.2202653,15.3017146 22.5668796,14.8891721 21.4623892,14.7544436 C20.9437794,14.6913359 20.7878054,14.6323678 20.6191594,14.4346099 C20.3114353,14.0683046 20.4294719,13.4748744 20.8552325,13.2559504 C21.0155087,13.1759724 21.0829359,13.1675373 21.4370454,13.1886253 C21.6562226,13.2011999 21.9809209,13.2390801 22.1537126,13.2769603 Z" id="Viber-yellow"></path>
        </g>
    </g>
</svg>