<?xml version="1.0" encoding="UTF-8"?>
<svg width="70px" height="70px" viewBox="0 0 70 70" version="1.1" xmlns="http://www.w3.org/2000/svg" xmlns:xlink="http://www.w3.org/1999/xlink">
    <!-- Generator: Sketch 63.1 (92452) - https://sketch.com -->
    <title>whatsapp</title>
    <desc>Created with Sketch.</desc>
    <g id="whatsapp" stroke="none" stroke-width="1" fill="none" fill-rule="evenodd">
        <g id="Group-2" transform="translate(9.000000, 7.000000)" fill="#FFFFFF" fill-rule="nonzero">
            <path d="M46.1324116,7.84738616 C51.2087957,12.9051299 54.0028534,19.6280871 54,26.7778987 C53.9939938,41.5315649 41.9313672,53.5360436 27.1130499,53.5360436 L27.1019937,53.5360436 C22.601994,53.5341485 18.1804122,52.4107399 14.2533553,50.2790919 L0,54 L3.81437203,40.1338644 C1.46160849,36.0761233 0.223466042,31.4725684 0.225442969,26.7565414 C0.231373752,12.0029481 12.2929021,0 27.112757,0 C34.3051858,0.00284278047 41.056174,2.78964235 46.1324116,7.84738616 Z M39.2874755,33.7569085 C38.5658454,33.3974736 35.0182503,31.6601136 34.3567823,31.4204643 C33.6953929,31.1808149 33.214411,31.0610294 32.7332719,31.7799775 C32.2522901,32.4988473 30.8694278,34.1164217 30.4483721,34.5956422 C30.0275523,35.0749409 29.6066539,35.134912 28.8850238,34.7753988 C28.1634723,34.4159639 25.8384645,33.6577136 23.082256,31.2111136 C20.9372625,29.3070716 19.4889691,26.955204 19.0680707,26.2363341 C18.6471723,25.517386 19.0233227,25.1286702 19.384531,24.7707228 C19.7090915,24.4489461 20.1060824,23.9319893 20.4668974,23.5125833 C20.8276338,23.0932556 20.9478793,22.7937135 21.1883702,22.314493 C21.4289398,21.8351943 21.3086944,21.4157884 21.1282868,21.0563535 C20.9478793,20.6969186 19.504855,17.1622275 18.9034705,15.7244096 C18.3178145,14.3240931 17.7228786,14.5135579 17.2799601,14.4916363 C16.8595335,14.4708109 16.3780012,14.4663483 15.8970192,14.4663483 C15.4159588,14.4663483 14.6342453,14.6461049 13.9727773,15.3649747 C13.3113879,16.0839227 11.4473866,17.8212828 11.4473866,21.3558956 C11.4473866,24.8905084 14.0329393,28.3052574 14.3937544,28.7845561 C14.7544907,29.2638549 19.4818913,36.5174562 26.7203694,39.6280439 C28.4419479,40.3678957 29.786039,40.809693 30.8339597,41.1408648 C32.5626161,41.6872591 34.1356376,41.6101423 35.3789867,41.4252967 C36.7653091,41.2191559 39.6481333,39.6880149 40.2495178,38.0105477 C40.8508239,36.3330804 40.8508239,34.8952626 40.6704163,34.5957205 C40.4900875,34.2961783 40.0090269,34.1164217 39.2874755,33.7569085 L39.2874755,33.7569085 Z" id="Shape"></path>
        </g>
        <g id="viber-sprite" transform="translate(0.000000, -21.000000)"></g>
    </g>
</svg>