<?xml version="1.0" encoding="UTF-8"?>
<svg width="231px" height="112px" viewBox="0 0 231 112" version="1.1" xmlns="http://www.w3.org/2000/svg" xmlns:xlink="http://www.w3.org/1999/xlink">
    <!-- Generator: Sketch 49.2 (51160) - http://www.bohemiancoding.com/sketch -->
    <title>viber-sprite</title>
    <desc>Created with Sketch.</desc>
    <defs>
        <circle id="path-1" cx="54" cy="54" r="54"></circle>
    </defs>
    <g id="viber-sprite" stroke="none" stroke-width="1" fill="none" fill-rule="evenodd">
        <g id="viber-blk-circ" transform="translate(3.000000, 2.000000)" stroke="#131E28" stroke-width="3">
            <circle id="path-33" cx="54" cy="54" r="54"></circle>
        </g>
        <g id="Yellow-whatsapp" transform="translate(120.000000, 2.000000)">
            <g id="Group-2">
                <circle id="yellow-circ" stroke="#FFDA1A" stroke-width="3" cx="54" cy="54" r="54"></circle>
                <mask id="mask-2" fill="white">
                    <use xlink:href="#path-1"></use>
                </mask>
                <g id="path-35"></g>
            </g>
            <path d="M32.443298,23.0752219 C31.2224138,23.2096848 29.8463378,23.6475641 28.6390955,24.2738914 C25.7993353,25.7691042 23.6879754,28.6785522 23.1281584,31.8842934 C23.0067584,32.5646059 23,33.4806034 23,54.6486428 L23,76.7056872 L23.1551918,77.3926229 C24.1263923,81.7771641 27.2292278,84.8753101 31.6204058,85.8450427 L32.3083812,86 L76.691744,86 L77.3797194,85.8450427 C81.7707722,84.8753101 84.8736077,81.7771641 85.8449333,77.3926229 L86,76.7056872 L86,54.6487678 C86,33.4807283 85.9932416,32.5647309 85.8718416,31.8845434 C85.7032582,30.9010645 85.3659663,29.9112124 84.8533326,28.8874946 C83.2547315,25.6748802 80.0440127,23.4522429 76.4421855,23.0616006 C75.6191681,22.9741248 33.2391567,22.9808729 32.443298,23.0750969 L32.443298,23.0752219 Z M56.5437138,34.2753843 C58.864082,34.5650544 60.7392749,35.1240253 62.796568,36.1274987 C64.8200693,37.1176007 66.1151701,38.0537177 67.8284129,39.7577479 C69.4337723,41.3673042 70.324248,42.5864681 71.2685403,44.4789464 C72.5839162,47.1190936 73.3325917,50.2574784 73.4606249,53.7126509 C73.5079334,54.891076 73.4742668,55.1538786 73.2043081,55.4905357 C72.6917996,56.1439806 71.5652821,56.0361353 71.1808068,55.3020877 C71.0594068,55.0596545 71.025615,54.8509621 70.98519,53.9078471 C70.9176065,52.4598712 70.8166066,51.5237543 70.6142315,50.4056875 C69.8182476,46.0212712 67.7137712,42.5191117 64.3546189,40.0069292 C61.5554088,37.9056335 58.6617068,36.8817907 54.8710211,36.659602 C53.5894369,36.5854974 53.3667867,36.5383854 53.0768033,36.3161967 C52.5371362,35.8918137 52.5102279,34.8950884 53.0294948,34.4304665 C53.3465117,34.1406714 53.5691619,34.1003075 54.668646,34.1340482 C55.2419797,34.1541677 56.0850218,34.2215241 56.5437138,34.2755092 L56.5437138,34.2753843 Z M41.1242786,35.0028087 C41.3604456,35.0836614 41.7246457,35.2722345 41.9337793,35.4069473 C43.2153634,36.2554634 46.7835241,40.8150814 47.9504665,43.0915788 C48.6181669,44.3913455 48.8408171,45.354455 48.6318088,46.0683832 C48.4157917,46.8361715 48.0584751,47.2403101 46.4597489,48.5267055 C45.8189568,49.0453125 45.2185896,49.5772909 45.1243482,49.7187519 C44.8814229,50.0690303 44.6856809,50.755966 44.6856809,51.2408323 C44.6925644,52.3655222 45.4209648,54.4062097 46.3788989,55.975527 C47.1206909,57.194566 48.4495835,58.7570103 49.7648343,59.9559297 C51.3094937,61.3702898 52.672053,62.3332744 54.209954,63.0944395 C56.1862719,64.0776685 57.3937645,64.3269747 58.2773567,63.916088 C58.4998818,63.8151159 58.7359236,63.680403 58.8102655,63.6199197 C58.8775987,63.5591864 59.3969907,62.9261109 59.9636912,62.225679 C61.0562918,60.8516828 61.3058503,60.6294941 62.0546509,60.3735646 C63.0058266,60.0502787 63.9770272,60.1377546 64.954986,60.6361172 C65.6970283,61.0201364 67.3159044,62.0236097 68.3613216,62.7509092 C69.7372725,63.7140187 72.6781577,66.1117327 73.0762748,66.5899759 C73.777767,67.4519883 73.899167,68.5564338 73.4269583,69.7755977 C72.9278414,71.0618681 70.98519,73.4730784 69.6293891,74.5035443 C68.4017466,75.4330381 67.5317962,75.7898147 66.3850037,75.8437998 C65.4407114,75.8909118 65.049603,75.8100591 63.8421104,75.3116965 C54.3719042,71.4121465 46.8105575,65.5931257 40.8072618,57.5987046 C37.6708848,53.4229807 35.2829331,49.0924246 33.6505403,44.600163 C32.6996148,41.9802602 32.6524315,40.842074 33.4347735,39.5018185 C33.7720655,38.9360994 35.2088415,37.5352356 36.2542587,36.753951 C37.9945349,35.4608075 38.7972772,34.9825643 39.4380693,34.8479764 C39.8764862,34.7536274 40.6385532,34.827732 41.1242786,35.0029337 L41.1242786,35.0028087 Z M57.0091641,39.1582882 C61.1036003,39.7576229 64.273769,41.6569743 66.3513371,44.741624 C67.5182795,46.4792699 68.2466799,48.5199574 68.4962384,50.708729 C68.5838467,51.510258 68.5838467,52.9718551 68.4896052,53.2142883 C68.4017466,53.4432251 68.1185215,53.7530147 67.8755962,53.8809795 C67.6126462,54.0156923 67.0528292,54.002196 66.7425707,53.8404906 C66.2231787,53.577938 66.0679868,53.1603031 66.0679868,52.028865 C66.0679868,50.2844709 65.6160532,48.4458528 64.8337111,47.0179964 C63.9432354,45.3881957 62.6482597,44.0411921 61.0699337,43.1049502 C59.7141327,42.2967979 57.7107814,41.6973382 55.8827718,41.5491291 C55.2217046,41.4953939 54.8575044,41.360681 54.6079459,41.0710109 C54.2234707,40.6332565 54.1829206,40.0405449 54.5066958,39.5489305 C54.8575044,39.0033309 55.3970463,38.915855 57.0091641,39.1582882 Z M58.4459401,44.2431364 C59.7747076,44.5260584 60.7933418,45.0311691 61.6634173,45.8461945 C62.7830513,46.903403 63.3969351,48.1830502 63.6666435,50.0217933 C63.8488687,51.2205879 63.774652,51.6920829 63.3496266,52.0827252 C62.9516347,52.4463749 62.2166011,52.4598712 61.7713006,52.1164659 C61.4475254,51.8739078 61.3464004,51.6179783 61.2721837,50.9242945 C61.1845754,50.0015489 61.0226252,49.3551021 60.7461584,48.7556424 C60.1524245,47.4827433 59.1070073,46.8226753 57.3398228,46.6071097 C56.5100471,46.5061375 56.2604887,46.4117885 55.9906551,46.0953758 C55.4982965,45.5092873 55.687155,44.5597991 56.368372,44.2095207 C56.624814,44.0815559 56.7326974,44.0680597 57.2992727,44.1018004 C57.6499562,44.1219198 58.1694734,44.1825281 58.4459401,44.2431364 Z" id="Viber-yellow" fill="#FFDA1A" fill-rule="nonzero"></path>
        </g>
        <path d="M34.443298,25.0752219 C33.2224138,25.2096848 31.8463378,25.6475641 30.6390955,26.2738914 C27.7993353,27.7691042 25.6879754,30.6785522 25.1281584,33.8842934 C25.0067584,34.5646059 25,35.4806034 25,56.6486428 L25,78.7056872 L25.1551918,79.3926229 C26.1263923,83.7771641 29.2292278,86.8753101 33.6204058,87.8450427 L34.3083812,88 L78.691744,88 L79.3797194,87.8450427 C83.7707722,86.8753101 86.8736077,83.7771641 87.8449333,79.3926229 L88,78.7056872 L88,56.6487678 C88,35.4807283 87.9932416,34.5647309 87.8718416,33.8845434 C87.7032582,32.9010645 87.3659663,31.9112124 86.8533326,30.8874946 C85.2547315,27.6748802 82.0440127,25.4522429 78.4421855,25.0616006 C77.6191681,24.9741248 35.2391567,24.9808729 34.443298,25.0750969 L34.443298,25.0752219 Z M58.5437138,36.2753843 C60.864082,36.5650544 62.7392749,37.1240253 64.796568,38.1274987 C66.8200693,39.1176007 68.1151701,40.0537177 69.8284129,41.7577479 C71.4337723,43.3673042 72.324248,44.5864681 73.2685403,46.4789464 C74.5839162,49.1190936 75.3325917,52.2574784 75.4606249,55.7126509 C75.5079334,56.891076 75.4742668,57.1538786 75.2043081,57.4905357 C74.6917996,58.1439806 73.5652821,58.0361353 73.1808068,57.3020877 C73.0594068,57.0596545 73.025615,56.8509621 72.98519,55.9078471 C72.9176065,54.4598712 72.8166066,53.5237543 72.6142315,52.4056875 C71.8182476,48.0212712 69.7137712,44.5191117 66.3546189,42.0069292 C63.5554088,39.9056335 60.6617068,38.8817907 56.8710211,38.659602 C55.5894369,38.5854974 55.3667867,38.5383854 55.0768033,38.3161967 C54.5371362,37.8918137 54.5102279,36.8950884 55.0294948,36.4304665 C55.3465117,36.1406714 55.5691619,36.1003075 56.668646,36.1340482 C57.2419797,36.1541677 58.0850218,36.2215241 58.5437138,36.2755092 L58.5437138,36.2753843 Z M43.1242786,37.0028087 C43.3604456,37.0836614 43.7246457,37.2722345 43.9337793,37.4069473 C45.2153634,38.2554634 48.7835241,42.8150814 49.9504665,45.0915788 C50.6181669,46.3913455 50.8408171,47.354455 50.6318088,48.0683832 C50.4157917,48.8361715 50.0584751,49.2403101 48.4597489,50.5267055 C47.8189568,51.0453125 47.2185896,51.5772909 47.1243482,51.7187519 C46.8814229,52.0690303 46.6856809,52.755966 46.6856809,53.2408323 C46.6925644,54.3655222 47.4209648,56.4062097 48.3788989,57.975527 C49.1206909,59.194566 50.4495835,60.7570103 51.7648343,61.9559297 C53.3094937,63.3702898 54.672053,64.3332744 56.209954,65.0944395 C58.1862719,66.0776685 59.3937645,66.3269747 60.2773567,65.916088 C60.4998818,65.8151159 60.7359236,65.680403 60.8102655,65.6199197 C60.8775987,65.5591864 61.3969907,64.9261109 61.9636912,64.225679 C63.0562918,62.8516828 63.3058503,62.6294941 64.0546509,62.3735646 C65.0058266,62.0502787 65.9770272,62.1377546 66.954986,62.6361172 C67.6970283,63.0201364 69.3159044,64.0236097 70.3613216,64.7509092 C71.7372725,65.7140187 74.6781577,68.1117327 75.0762748,68.5899759 C75.777767,69.4519883 75.899167,70.5564338 75.4269583,71.7755977 C74.9278414,73.0618681 72.98519,75.4730784 71.6293891,76.5035443 C70.4017466,77.4330381 69.5317962,77.7898147 68.3850037,77.8437998 C67.4407114,77.8909118 67.049603,77.8100591 65.8421104,77.3116965 C56.3719042,73.4121465 48.8105575,67.5931257 42.8072618,59.5987046 C39.6708848,55.4229807 37.2829331,51.0924246 35.6505403,46.600163 C34.6996148,43.9802602 34.6524315,42.842074 35.4347735,41.5018185 C35.7720655,40.9360994 37.2088415,39.5352356 38.2542587,38.753951 C39.9945349,37.4608075 40.7972772,36.9825643 41.4380693,36.8479764 C41.8764862,36.7536274 42.6385532,36.827732 43.1242786,37.0029337 L43.1242786,37.0028087 Z M59.0091641,41.1582882 C63.1036003,41.7576229 66.273769,43.6569743 68.3513371,46.741624 C69.5182795,48.4792699 70.2466799,50.5199574 70.4962384,52.708729 C70.5838467,53.510258 70.5838467,54.9718551 70.4896052,55.2142883 C70.4017466,55.4432251 70.1185215,55.7530147 69.8755962,55.8809795 C69.6126462,56.0156923 69.0528292,56.002196 68.7425707,55.8404906 C68.2231787,55.577938 68.0679868,55.1603031 68.0679868,54.028865 C68.0679868,52.2844709 67.6160532,50.4458528 66.8337111,49.0179964 C65.9432354,47.3881957 64.6482597,46.0411921 63.0699337,45.1049502 C61.7141327,44.2967979 59.7107814,43.6973382 57.8827718,43.5491291 C57.2217046,43.4953939 56.8575044,43.360681 56.6079459,43.0710109 C56.2234707,42.6332565 56.1829206,42.0405449 56.5066958,41.5489305 C56.8575044,41.0033309 57.3970463,40.915855 59.0091641,41.1582882 Z M60.4459401,46.2431364 C61.7747076,46.5260584 62.7933418,47.0311691 63.6634173,47.8461945 C64.7830513,48.903403 65.3969351,50.1830502 65.6666435,52.0217933 C65.8488687,53.2205879 65.774652,53.6920829 65.3496266,54.0827252 C64.9516347,54.4463749 64.2166011,54.4598712 63.7713006,54.1164659 C63.4475254,53.8739078 63.3464004,53.6179783 63.2721837,52.9242945 C63.1845754,52.0015489 63.0226252,51.3551021 62.7461584,50.7556424 C62.1524245,49.4827433 61.1070073,48.8226753 59.3398228,48.6071097 C58.5100471,48.5061375 58.2604887,48.4117885 57.9906551,48.0953758 C57.4982965,47.5092873 57.687155,46.5597991 58.368372,46.2095207 C58.624814,46.0815559 58.7326974,46.0680597 59.2992727,46.1018004 C59.6499562,46.1219198 60.1694734,46.1825281 60.4459401,46.2431364 Z" id="Viber" fill="#000000" fill-rule="nonzero"></path>
    </g>
</svg>