<?xml version="1.0" encoding="UTF-8"?>
<svg width="70px" height="70px" viewBox="0 0 70 70" version="1.1" xmlns="http://www.w3.org/2000/svg" xmlns:xlink="http://www.w3.org/1999/xlink">
    <!-- Generator: Sketch 63.1 (92452) - https://sketch.com -->
    <title>whatsapp</title>
    <desc>Created with Sketch.</desc>
    <g id="whatsapp" stroke="none" stroke-width="1" fill="none" fill-rule="evenodd">
        <g id="Group-2" transform="translate(6.000000, 6.000000)" fill="#FFFFFF" fill-rule="nonzero">
            <path d="M49.5496253,8.42867402 C55.0020376,13.8610655 58.0030624,21.0820195 58,28.7614468 C57.9935466,44.6079771 45.0373926,57.5016765 29.1214228,57.5016765 L29.1095476,57.5016765 C24.2762148,57.4996409 19.5271086,56.293017 15.3091588,54.0034691 L0,58 L4.09691794,43.1067433 C1.56987572,38.7484287 0.240019072,33.8038697 0.242142439,28.7385074 C0.248512538,12.8920554 13.2034869,0 29.1211082,0 C36.8463092,0.0030533568 44.0973703,2.99628252 49.5496253,8.42867402 Z M42.2874755,34.7569085 C41.5658454,34.3974736 38.0182503,32.6601136 37.3567823,32.4204643 C36.6953929,32.1808149 36.214411,32.0610294 35.7332719,32.7799775 C35.2522901,33.4988473 33.8694278,35.1164217 33.4483721,35.5956422 C33.0275523,36.0749409 32.6066539,36.134912 31.8850238,35.7753988 C31.1634723,35.4159639 28.8384645,34.6577136 26.082256,32.2111136 C23.9372625,30.3070716 22.4889691,27.955204 22.0680707,27.2363341 C21.6471723,26.517386 22.0233227,26.1286702 22.384531,25.7707228 C22.7090915,25.4489461 23.1060824,24.9319893 23.4668974,24.5125833 C23.8276338,24.0932556 23.9478793,23.7937135 24.1883702,23.314493 C24.4289398,22.8351943 24.3086944,22.4157884 24.1282868,22.0563535 C23.9478793,21.6969186 22.504855,18.1622275 21.9034705,16.7244096 C21.3178145,15.3240931 20.7228786,15.5135579 20.2799601,15.4916363 C19.8595335,15.4708109 19.3780012,15.4663483 18.8970192,15.4663483 C18.4159588,15.4663483 17.6342453,15.6461049 16.9727773,16.3649747 C16.3113879,17.0839227 14.4473866,18.8212828 14.4473866,22.3558956 C14.4473866,25.8905084 17.0329393,29.3052574 17.3937544,29.7845561 C17.7544907,30.2638549 22.4818913,37.5174562 29.7203694,40.6280439 C31.4419479,41.3678957 32.786039,41.809693 33.8339597,42.1408648 C35.5626161,42.6872591 37.1356376,42.6101423 38.3789867,42.4252967 C39.7653091,42.2191559 42.6481333,40.6880149 43.2495178,39.0105477 C43.8508239,37.3330804 43.8508239,35.8952626 43.6704163,35.5957205 C43.4900875,35.2961783 43.0090269,35.1164217 42.2874755,34.7569085 L42.2874755,34.7569085 Z" id="Shape"></path>
        </g>
        <g id="viber-sprite" transform="translate(0.000000, -21.000000)"></g>
    </g>
</svg>